<?xml version="1.0" encoding="UTF-8"?>
<svg version="1.1" xmlns="http://www.w3.org/2000/svg" width="500" height="500">
<path d="M0 0 C5.73364994 6.0084654 8.16305708 14.09127905 8.08203125 22.234375 C7.36926421 28.75523018 5.25830508 35.94476821 0.79296875 40.87890625 C0.13296875 40.87890625 -0.52703125 40.87890625 -1.20703125 40.87890625 C-1.20703125 41.53890625 -1.20703125 42.19890625 -1.20703125 42.87890625 C-10.57004147 48.65092667 -20.22975168 49.73243721 -31.01953125 50.0390625 C-42.54996594 50.37496563 -52.29211655 52.17384346 -63.20703125 55.87890625 C-64.5352728 56.23198312 -65.86603753 56.57786684 -67.20703125 56.87890625 C-67.20703125 57.53890625 -67.20703125 58.19890625 -67.20703125 58.87890625 C-67.86703125 58.87890625 -68.52703125 58.87890625 -69.20703125 58.87890625 C-74.49964772 71.35435936 -74.04217596 80.3105332 -69.20703125 92.87890625 C-66.06683637 99.83750377 -62.00232478 105.56043217 -57.15625 111.421875 C-46.80554606 124.46915511 -41.06188499 140.20770716 -42.20703125 156.87890625 C-42.53703125 158.19890625 -42.86703125 159.51890625 -43.20703125 160.87890625 C-39.90703125 160.87890625 -36.60703125 160.87890625 -33.20703125 160.87890625 C-33.20703125 163.84890625 -33.20703125 166.81890625 -33.20703125 169.87890625 C-38.17325474 169.90355723 -43.13944291 169.92174274 -48.10571289 169.93383789 C-49.79647441 169.93887815 -51.48723154 169.9457103 -53.17797852 169.9543457 C-55.60303832 169.96642482 -58.02804069 169.97213748 -60.453125 169.9765625 C-61.59375648 169.98430443 -61.59375648 169.98430443 -62.75743103 169.99220276 C-64.57435695 169.99239863 -66.39116252 169.94087902 -68.20703125 169.87890625 C-69.20703125 168.87890625 -69.20703125 168.87890625 -69.33203125 165.37890625 C-69.20703125 161.87890625 -69.20703125 161.87890625 -68.20703125 160.87890625 C-66.35415623 160.80664123 -64.49869247 160.79509405 -62.64453125 160.81640625 C-61.63261719 160.82542969 -60.62070312 160.83445312 -59.578125 160.84375 C-58.40443359 160.86115234 -58.40443359 160.86115234 -57.20703125 160.87890625 C-54.02675732 142.5253606 -54.02675732 142.5253606 -58.83203125 124.94140625 C-60.00765625 123.42546875 -60.00765625 123.42546875 -61.20703125 121.87890625 C-74.21201691 104.72977422 -79.40483473 88.3285736 -76.96679688 66.75292969 C-76.73620477 65.12488404 -76.47524685 63.50117804 -76.20703125 61.87890625 C-87.20435118 60.46496512 -95.38059639 64.93077846 -104.296875 70.97265625 C-111.4021359 75.62684057 -119.71157247 78.4017959 -128.20703125 76.87890625 C-132.33639904 75.46326296 -136.27498236 73.77061362 -140.20703125 71.87890625 C-140.20703125 71.21890625 -140.20703125 70.55890625 -140.20703125 69.87890625 C-141.28984375 69.60046875 -141.28984375 69.60046875 -142.39453125 69.31640625 C-146.32709002 67.30643177 -148.25104454 64.80586806 -150.20703125 60.87890625 C-152.19027958 54.68842015 -150.92948046 49.9783128 -148.41015625 44.140625 C-147.18382435 41.83528029 -145.92115744 39.85015136 -144.20703125 37.87890625 C-143.54703125 37.87890625 -142.88703125 37.87890625 -142.20703125 37.87890625 C-142.20703125 37.21890625 -142.20703125 36.55890625 -142.20703125 35.87890625 C-141.54703125 35.87890625 -140.88703125 35.87890625 -140.20703125 35.87890625 C-140.20703125 35.21890625 -140.20703125 34.55890625 -140.20703125 33.87890625 C-129.68897935 25.43598258 -118.49841074 22.71736247 -105.20703125 23.87890625 C-92.92274685 25.71884312 -83.59198133 34.36140374 -76.20703125 43.87890625 C-75.87703125 44.53890625 -75.54703125 45.19890625 -75.20703125 45.87890625 C-74.86671875 44.73035156 -74.52640625 43.58179688 -74.17578125 42.3984375 C-71.03959534 32.20995841 -67.36141688 23.61839629 -61.20703125 14.87890625 C-60.40845703 13.71488281 -60.40845703 13.71488281 -59.59375 12.52734375 C-59.13613281 11.98335937 -58.67851562 11.439375 -58.20703125 10.87890625 C-57.54703125 10.87890625 -56.88703125 10.87890625 -56.20703125 10.87890625 C-56.20703125 10.21890625 -56.20703125 9.55890625 -56.20703125 8.87890625 C-54.74609375 7.58984375 -54.74609375 7.58984375 -52.83203125 6.25390625 C-52.20554687 5.80789062 -51.5790625 5.361875 -50.93359375 4.90234375 C-49.20703125 3.87890625 -49.20703125 3.87890625 -47.20703125 3.87890625 C-47.20703125 3.21890625 -47.20703125 2.55890625 -47.20703125 1.87890625 C-31.28588216 -5.96629765 -15.62843496 -12.4465979 0 0 Z M-20.20703125 4.87890625 C-19.20703125 6.87890625 -19.20703125 6.87890625 -19.20703125 6.87890625 Z M-41.20703125 5.87890625 C-41.20703125 7.52890625 -41.20703125 9.17890625 -41.20703125 10.87890625 C-40.87703125 10.87890625 -40.54703125 10.87890625 -40.20703125 10.87890625 C-40.20703125 9.22890625 -40.20703125 7.57890625 -40.20703125 5.87890625 C-40.53703125 5.87890625 -40.86703125 5.87890625 -41.20703125 5.87890625 Z M-21.20703125 6.87890625 C-20.20703125 8.87890625 -20.20703125 8.87890625 -20.20703125 8.87890625 Z M-12.20703125 8.87890625 C-9.56703125 8.87890625 -6.92703125 8.87890625 -4.20703125 8.87890625 C-3.87703125 8.21890625 -3.54703125 7.55890625 -3.20703125 6.87890625 C-6.83231693 6.67750149 -9.07204833 7.0211386 -12.20703125 8.87890625 Z M-22.20703125 8.87890625 C-23.23310465 10.19228021 -24.2343045 11.5255473 -25.20703125 12.87890625 C-23.22703125 12.87890625 -21.24703125 12.87890625 -19.20703125 12.87890625 C-19.86703125 11.55890625 -20.52703125 10.23890625 -21.20703125 8.87890625 C-21.53703125 8.87890625 -21.86703125 8.87890625 -22.20703125 8.87890625 Z M-16.20703125 8.87890625 C-12.20703125 9.87890625 -12.20703125 9.87890625 -12.20703125 9.87890625 Z M-42.20703125 10.87890625 C-41.20703125 13.87890625 -41.20703125 13.87890625 -41.20703125 13.87890625 Z M-43.20703125 16.87890625 C-43.86703125 18.85890625 -44.52703125 20.83890625 -45.20703125 22.87890625 C-43.55703125 22.54890625 -41.90703125 22.21890625 -40.20703125 21.87890625 C-40.20703125 21.21890625 -40.20703125 20.55890625 -40.20703125 19.87890625 C-40.86703125 19.87890625 -41.52703125 19.87890625 -42.20703125 19.87890625 C-42.53703125 18.88890625 -42.86703125 17.89890625 -43.20703125 16.87890625 Z M-58.20703125 17.87890625 C-57.20703125 19.87890625 -57.20703125 19.87890625 -57.20703125 19.87890625 Z M-8.20703125 19.87890625 C-8.20703125 20.53890625 -8.20703125 21.19890625 -8.20703125 21.87890625 C-7.54703125 21.54890625 -6.88703125 21.21890625 -6.20703125 20.87890625 C-6.86703125 20.54890625 -7.52703125 20.21890625 -8.20703125 19.87890625 Z M-59.20703125 20.87890625 C-58.20703125 23.87890625 -58.20703125 23.87890625 -58.20703125 23.87890625 Z M-26.20703125 21.87890625 C-22.1741038 24.11336605 -18.75735691 24.42387368 -14.20703125 24.87890625 C-16.70209087 22.38384663 -17.88032013 22.51942249 -21.33203125 22.25390625 C-22.24210938 22.17914063 -23.1521875 22.104375 -24.08984375 22.02734375 C-24.78851563 21.97835937 -25.4871875 21.929375 -26.20703125 21.87890625 Z M-47.20703125 22.87890625 C-47.53703125 23.53890625 -47.86703125 24.19890625 -48.20703125 24.87890625 C-47.21703125 24.54890625 -46.22703125 24.21890625 -45.20703125 23.87890625 C-45.86703125 23.54890625 -46.52703125 23.21890625 -47.20703125 22.87890625 Z M-60.20703125 24.87890625 C-60.26761719 25.64976562 -60.32820313 26.420625 -60.390625 27.21484375 C-60.47441406 28.21773437 -60.55820312 29.220625 -60.64453125 30.25390625 C-60.72574219 31.25164062 -60.80695313 32.249375 -60.890625 33.27734375 C-61.20703125 35.87890625 -61.20703125 35.87890625 -62.20703125 37.87890625 C-60.88703125 37.54890625 -59.56703125 37.21890625 -58.20703125 36.87890625 C-57.87703125 35.55890625 -57.54703125 34.23890625 -57.20703125 32.87890625 C-57.86703125 32.87890625 -58.52703125 32.87890625 -59.20703125 32.87890625 C-59.20703125 30.23890625 -59.20703125 27.59890625 -59.20703125 24.87890625 C-59.53703125 24.87890625 -59.86703125 24.87890625 -60.20703125 24.87890625 Z M-13.20703125 24.87890625 C-12.54703125 25.53890625 -11.88703125 26.19890625 -11.20703125 26.87890625 C-11.20703125 26.21890625 -11.20703125 25.55890625 -11.20703125 24.87890625 C-11.86703125 24.87890625 -12.52703125 24.87890625 -13.20703125 24.87890625 Z M-127.20703125 35.87890625 C-123.9791157 38.03084995 -122.92302316 38.07977068 -119.20703125 37.87890625 C-121.10458269 35.52916807 -121.10458269 35.52916807 -124.33203125 35.75390625 C-125.28078125 35.79515625 -126.22953125 35.83640625 -127.20703125 35.87890625 Z M-57.20703125 35.87890625 C-57.20703125 36.20890625 -57.20703125 36.53890625 -57.20703125 36.87890625 C-49.94703125 37.20890625 -42.68703125 37.53890625 -35.20703125 37.87890625 C-38.83198967 36.06642704 -39.80220185 35.63026583 -43.53515625 35.68359375 C-44.334375 35.69003906 -45.13359375 35.69648438 -45.95703125 35.703125 C-46.78203125 35.71988281 -47.60703125 35.73664063 -48.45703125 35.75390625 C-49.71773438 35.76744141 -49.71773438 35.76744141 -51.00390625 35.78125 C-53.07173729 35.80474808 -55.1394212 35.84061717 -57.20703125 35.87890625 Z M-119.20703125 37.87890625 C-118.54703125 38.53890625 -117.88703125 39.19890625 -117.20703125 39.87890625 C-116.21703125 39.54890625 -115.22703125 39.21890625 -114.20703125 38.87890625 C-115.85703125 38.54890625 -117.50703125 38.21890625 -119.20703125 37.87890625 Z M-98.20703125 37.87890625 C-96.88703125 39.52890625 -95.56703125 41.17890625 -94.20703125 42.87890625 C-93.54703125 42.54890625 -92.88703125 42.21890625 -92.20703125 41.87890625 C-93.49668301 40.50327771 -94.83392418 39.17124232 -96.20703125 37.87890625 C-96.86703125 37.87890625 -97.52703125 37.87890625 -98.20703125 37.87890625 Z M-63.20703125 37.87890625 C-62.20703125 39.87890625 -62.20703125 39.87890625 -62.20703125 39.87890625 Z M-34.20703125 37.87890625 C-32.72203125 38.86890625 -32.72203125 38.86890625 -31.20703125 39.87890625 C-30.21703125 39.54890625 -29.22703125 39.21890625 -28.20703125 38.87890625 C-31.17703125 38.38390625 -31.17703125 38.38390625 -34.20703125 37.87890625 Z M-111.20703125 41.87890625 C-111.53703125 42.86890625 -111.86703125 43.85890625 -112.20703125 44.87890625 C-110.72203125 45.86890625 -110.72203125 45.86890625 -109.20703125 46.87890625 C-109.20703125 46.21890625 -109.20703125 45.55890625 -109.20703125 44.87890625 C-108.54703125 44.54890625 -107.88703125 44.21890625 -107.20703125 43.87890625 C-108.52703125 43.21890625 -109.84703125 42.55890625 -111.20703125 41.87890625 Z M-66.20703125 41.87890625 C-65.20703125 43.87890625 -65.20703125 43.87890625 -65.20703125 43.87890625 Z M-92.20703125 42.87890625 C-91.20703125 44.87890625 -91.20703125 44.87890625 -91.20703125 44.87890625 Z M-122.20703125 46.87890625 C-118.74203125 46.38390625 -118.74203125 46.38390625 -115.20703125 45.87890625 C-115.20703125 45.54890625 -115.20703125 45.21890625 -115.20703125 44.87890625 C-119.16160973 44.53066818 -119.16160973 44.53066818 -122.20703125 46.87890625 Z M-99.20703125 44.87890625 C-95.20703125 45.87890625 -95.20703125 45.87890625 -95.20703125 45.87890625 Z M-91.20703125 44.87890625 C-91.53703125 46.19890625 -91.86703125 47.51890625 -92.20703125 48.87890625 C-89.56703125 49.20890625 -86.92703125 49.53890625 -84.20703125 49.87890625 C-84.53703125 49.21890625 -84.86703125 48.55890625 -85.20703125 47.87890625 C-86.19703125 47.54890625 -87.18703125 47.21890625 -88.20703125 46.87890625 C-88.53703125 46.21890625 -88.86703125 45.55890625 -89.20703125 44.87890625 C-89.86703125 44.87890625 -90.52703125 44.87890625 -91.20703125 44.87890625 Z M-68.20703125 44.87890625 C-67.20703125 46.87890625 -67.20703125 46.87890625 -67.20703125 46.87890625 Z M-143.20703125 45.87890625 C-143.20703125 46.20890625 -143.20703125 46.53890625 -143.20703125 46.87890625 C-141.55703125 46.87890625 -139.90703125 46.87890625 -138.20703125 46.87890625 C-138.20703125 46.54890625 -138.20703125 46.21890625 -138.20703125 45.87890625 C-139.85703125 45.87890625 -141.50703125 45.87890625 -143.20703125 45.87890625 Z M-138.20703125 46.87890625 C-136.72203125 47.86890625 -136.72203125 47.86890625 -135.20703125 48.87890625 C-134.54703125 49.53890625 -133.88703125 50.19890625 -133.20703125 50.87890625 C-132.21703125 51.20890625 -131.22703125 51.53890625 -130.20703125 51.87890625 C-129.87703125 52.53890625 -129.54703125 53.19890625 -129.20703125 53.87890625 C-129.39531897 51.43410546 -129.39531897 51.43410546 -130.20703125 48.87890625 C-133.10513241 46.78028127 -134.49081986 46.87890625 -138.20703125 46.87890625 Z M-125.20703125 46.87890625 C-126.19703125 47.53890625 -127.18703125 48.19890625 -128.20703125 48.87890625 C-126.22703125 48.54890625 -124.24703125 48.21890625 -122.20703125 47.87890625 C-123.19703125 47.54890625 -124.18703125 47.21890625 -125.20703125 46.87890625 Z M-112.20703125 47.87890625 C-111.87703125 48.53890625 -111.54703125 49.19890625 -111.20703125 49.87890625 C-110.87703125 49.21890625 -110.54703125 48.55890625 -110.20703125 47.87890625 C-110.86703125 47.87890625 -111.52703125 47.87890625 -112.20703125 47.87890625 Z M-114.20703125 49.87890625 C-114.53703125 50.53890625 -114.86703125 51.19890625 -115.20703125 51.87890625 C-114.21703125 51.54890625 -113.22703125 51.21890625 -112.20703125 50.87890625 C-112.86703125 50.54890625 -113.52703125 50.21890625 -114.20703125 49.87890625 Z M-135.20703125 51.87890625 C-135.53703125 52.53890625 -135.86703125 53.19890625 -136.20703125 53.87890625 C-135.21703125 53.54890625 -134.22703125 53.21890625 -133.20703125 52.87890625 C-133.86703125 52.54890625 -134.52703125 52.21890625 -135.20703125 51.87890625 Z M-117.20703125 51.87890625 C-117.53703125 52.53890625 -117.86703125 53.19890625 -118.20703125 53.87890625 C-117.21703125 53.54890625 -116.22703125 53.21890625 -115.20703125 52.87890625 C-115.86703125 52.54890625 -116.52703125 52.21890625 -117.20703125 51.87890625 Z M-138.20703125 53.87890625 C-139.84379382 55.83893435 -139.84379382 55.83893435 -141.20703125 57.87890625 C-138.08505647 56.56994905 -138.08505647 56.56994905 -136.20703125 53.87890625 C-136.86703125 53.87890625 -137.52703125 53.87890625 -138.20703125 53.87890625 Z M-102.20703125 53.87890625 C-102.53703125 54.53890625 -102.86703125 55.19890625 -103.20703125 55.87890625 C-102.54703125 55.87890625 -101.88703125 55.87890625 -101.20703125 55.87890625 C-101.53703125 55.21890625 -101.86703125 54.55890625 -102.20703125 53.87890625 Z M-131.20703125 55.87890625 C-130.20703125 58.87890625 -130.20703125 58.87890625 -130.20703125 58.87890625 Z " fill="#FDFDFD" transform="translate(452.20703125,147.12109375)"/>
<path d="M0 0 C3 1.5 3 1.5 5 3 C5.66 2.01 6.32 1.02 7 0 C10.5625 -0.25 10.5625 -0.25 14 0 C15 1 15 1 15.11352539 4.14282227 C15.11336633 5.53402697 15.10767506 6.92523761 15.09765625 8.31640625 C15.0962413 9.04746078 15.09482635 9.77851532 15.09336853 10.53172302 C15.08775408 12.87535632 15.07519922 15.21889539 15.0625 17.5625 C15.05748686 19.14778508 15.05292363 20.73307166 15.04882812 22.31835938 C15.03777997 26.2122761 15.02050572 30.10612205 15 34 C12.03 34 9.06 34 6 34 C5.67 33.34 5.34 32.68 5 32 C4.154375 32.495 3.30875 32.99 2.4375 33.5 C-2.5482827 35.67561427 -6.09557546 35.70949149 -11.1875 33.8125 C-16.2386808 30.55729459 -18.60615854 26.80767275 -20 21 C-20.51167567 15.47390281 -19.73012603 10.82322265 -17 6 C-12.21732338 0.70769391 -7.0203181 -0.81949239 0 0 Z M-9 11 C-10.74355021 14.48710043 -10.56969879 18.19545983 -10 22 C-8.14358251 25.2739971 -8.14358251 25.2739971 -5 27 C-0.72539746 27.14998605 1.20361287 26.69428622 4.4375 23.875 C6.42214753 20.22324854 6.58639648 18.10477533 6 14 C4.03928757 10.53104724 2.84456051 9.28750996 -0.9375 8 C-4.57241294 8 -6.14864833 8.80038586 -9 11 Z " fill="#FEFEFE" transform="translate(288,272)"/>
<path d="M0 0 C4.15747207 2.96962291 4.15747207 2.96962291 5.0625 6.1875 C5.0625 7.5075 5.0625 8.8275 5.0625 10.1875 C1.7625 10.1875 -1.5375 10.1875 -4.9375 10.1875 C-5.2675 9.1975 -5.5975 8.2075 -5.9375 7.1875 C-10.41883574 6.46493171 -10.41883574 6.46493171 -14.9375 6.1875 C-15.23860818 9.07654363 -15.23860818 9.07654363 -13.9375 12.1875 C-10.7731998 13.96288981 -7.35565575 14.99594201 -3.9375 16.1875 C-0.15763252 17.83638859 2.56920675 19.54472394 5.125 22.875 C6.41676261 27.43922791 5.97018406 30.85330568 4.0625 35.1875 C1.86743634 37.89453186 -0.63746428 39.64232373 -3.875 41 C-10.11338065 41.56712551 -15.44444592 41.3927745 -20.9375 38.1875 C-24.06943451 34.50747695 -24.9375 33.06135899 -24.9375 28.1875 C-21.6375 28.1875 -18.3375 28.1875 -14.9375 28.1875 C-14.2775 29.5075 -13.6175 30.8275 -12.9375 32.1875 C-10.60455225 32.22991723 -8.27047433 32.22842937 -5.9375 32.1875 C-4.64116379 31.12104885 -4.64116379 31.12104885 -4.875 28.625 C-4.895625 27.820625 -4.91625 27.01625 -4.9375 26.1875 C-5.58976562 25.93355469 -6.24203125 25.67960937 -6.9140625 25.41796875 C-9.59712298 24.36136529 -12.2682162 23.27838994 -14.9375 22.1875 C-16.05125 21.73375 -17.165 21.28 -18.3125 20.8125 C-21.79177364 18.65866394 -23.21350286 16.91133382 -24.9375 13.1875 C-25.36297302 8.36263594 -24.65108663 5.14574491 -21.75 1.25 C-14.90600748 -3.76892785 -7.46498285 -3.93466805 0 0 Z " fill="#FFFFFF" transform="translate(234.9375,265.8125)"/>
<path d="M0 0 C2.97 0 5.94 0 9 0 C9.33 6.93 9.66 13.86 10 21 C14.20509458 16.15536902 14.20509458 16.15536902 18 11 C21.52059568 9.82646811 24.306493 9.79853598 28 10 C28.66 10.66 29.32 11.32 30 12 C29.39671875 12.73605469 28.7934375 13.47210938 28.171875 14.23046875 C27.37265625 15.20628906 26.5734375 16.18210937 25.75 17.1875 C24.96109375 18.15042969 24.1721875 19.11335938 23.359375 20.10546875 C21.22415228 22.72500523 19.10643639 25.35729197 17 28 C17.39380859 28.41362793 17.78761719 28.82725586 18.19335938 29.25341797 C19.96739988 31.12245887 21.73375387 32.99859299 23.5 34.875 C24.12003906 35.52597656 24.74007813 36.17695313 25.37890625 36.84765625 C25.96542969 37.47285156 26.55195313 38.09804688 27.15625 38.7421875 C27.70087891 39.3182373 28.24550781 39.89428711 28.80664062 40.48779297 C30 42 30 42 30 44 C25.81456294 44.69059712 22.15680053 44.94795329 18 44 C14.57933205 40.75036544 12.27162366 37.11564756 10 33 C9.67 36.63 9.34 40.26 9 44 C6.03 44 3.06 44 0 44 C-1.33249419 40.00251743 -1.14266329 36.15946284 -1.1328125 31.9921875 C-1.13424759 30.67034958 -1.13424759 30.67034958 -1.13571167 29.32180786 C-1.13639186 27.46079436 -1.1345488 25.59977847 -1.13037109 23.73876953 C-1.12500784 20.87917811 -1.13032806 18.01974286 -1.13671875 15.16015625 C-1.13605819 13.35416632 -1.13477749 11.54817648 -1.1328125 9.7421875 C-1.13483673 8.88180878 -1.13686096 8.02143005 -1.13894653 7.13497925 C-1.11495872 1.11495872 -1.11495872 1.11495872 0 0 Z " fill="#FFFFFF" transform="translate(347,262)"/>
<path d="M0 0 C4.81057982 2.86288165 7.560512 5.60503196 9.109375 11.03125 C9.55264575 13.39860805 9.7553028 15.53340034 9.46484375 17.9296875 C8.46484375 18.9296875 8.46484375 18.9296875 6.23999023 19.04321289 C5.28165283 19.03797607 4.32331543 19.03273926 3.3359375 19.02734375 C1.78422852 19.02250977 1.78422852 19.02250977 0.20117188 19.01757812 C-0.88744141 19.00919922 -1.97605469 19.00082031 -3.09765625 18.9921875 C-4.73637695 18.98541992 -4.73637695 18.98541992 -6.40820312 18.97851562 C-9.1172412 18.96668576 -11.82617224 18.95020293 -14.53515625 18.9296875 C-13.44730657 22.17951885 -13.44730657 22.17951885 -11.53515625 24.9296875 C-8.11891367 25.26323153 -8.11891367 25.26323153 -4.53515625 24.9296875 C-4.06207031 24.43339844 -3.58898437 23.93710937 -3.1015625 23.42578125 C-1.53515625 21.9296875 -1.53515625 21.9296875 0.7265625 21.63671875 C1.52707031 21.67152344 2.32757813 21.70632813 3.15234375 21.7421875 C3.96058594 21.76925781 4.76882812 21.79632813 5.6015625 21.82421875 C6.21644531 21.85902344 6.83132812 21.89382813 7.46484375 21.9296875 C7.16482625 25.42989172 6.50750634 26.87872941 4.21484375 29.6171875 C-0.2064873 33.33512497 -3.64335094 34.35590238 -9.48046875 34.1796875 C-14.19433693 33.606137 -17.56312271 31.92799221 -20.84765625 28.5546875 C-24.53780817 22.81445118 -25.52576063 17.70913621 -24.53515625 10.9296875 C-22.59584239 5.86496156 -19.47344232 1.93494674 -14.546875 -0.4375 C-9.48681319 -2.02920876 -4.91440374 -2.0748022 0 0 Z M-14.53515625 9.9296875 C-14.53515625 10.9196875 -14.53515625 11.9096875 -14.53515625 12.9296875 C-9.91515625 12.9296875 -5.29515625 12.9296875 -0.53515625 12.9296875 C-1.10913015 8.72788566 -1.10913015 8.72788566 -4.53515625 6.9296875 C-8.88671762 6.46675544 -11.43389285 6.70914474 -14.53515625 9.9296875 Z " fill="#FFFFFF" transform="translate(196.53515625,273.0703125)"/>
<path d="M0 0 C4.1796989 2.8497947 7.11864324 5.98092971 8.75 10.875 C8.75 13.515 8.75 16.155 8.75 18.875 C0.83 18.875 -7.09 18.875 -15.25 18.875 C-14.6760261 23.07680184 -14.6760261 23.07680184 -11.25 24.875 C-6.98527274 25.36829585 -6.98527274 25.36829585 -3.375 23.375 C-0.08330721 21.05145215 2.78517868 21.67675893 6.75 21.875 C7.245 22.865 7.245 22.865 7.75 23.875 C5.6138799 28.38458687 2.60941873 31.69179225 -2.0625 33.625 C-9.12101677 34.43168763 -14.41534861 34.24775426 -20.25 29.875 C-24.26367766 25.41021736 -25.50372381 19.77154127 -25.25 13.875 C-24.11309745 8.27097591 -21.73376803 4.50471698 -17.25 0.875 C-11.93191379 -2.22721696 -5.6740006 -1.96407713 0 0 Z M-15.25 9.875 C-15.25 10.865 -15.25 11.855 -15.25 12.875 C-10.63 12.875 -6.01 12.875 -1.25 12.875 C-1.8239739 8.67319816 -1.8239739 8.67319816 -5.25 6.875 C-9.60156137 6.41206794 -12.1487366 6.65445724 -15.25 9.875 Z " fill="#FFFFFF" transform="translate(160.25,273.125)"/>
<path d="M0 0 C3.61629879 2.43889919 6.00541765 4.92365657 7.5 9.0625 C7.561875 9.64 7.62375 10.2175 7.6875 10.8125 C6.6875 11.8125 6.6875 11.8125 3.3125 12 C-0.3125 11.8125 -0.3125 11.8125 -3.3125 9.8125 C-3.3125 9.1525 -3.3125 8.4925 -3.3125 7.8125 C-8.63420494 7.51687633 -8.63420494 7.51687633 -13.3125 9.8125 C-14.71489964 14.01969891 -14.77385575 17.8645535 -13.75 22.1875 C-12.26788989 24.16214323 -12.26788989 24.16214323 -8.875 24.75 C-7.699375 24.770625 -6.52375 24.79125 -5.3125 24.8125 C-4.84070313 24.33296875 -4.36890625 23.8534375 -3.8828125 23.359375 C-1.82573842 21.33300351 -0.46492146 21.33079141 2.375 21.125 C3.58736328 21.02638672 3.58736328 21.02638672 4.82421875 20.92578125 C5.74654297 20.86970703 5.74654297 20.86970703 6.6875 20.8125 C7.0175 21.8025 7.3475 22.7925 7.6875 23.8125 C5.20377201 28.22801642 2.7319547 31.61646422 -2.0625 33.5 C-8.26678469 34.36170621 -13.03494416 34.30543017 -18.546875 31.19140625 C-22.61111702 28.01734114 -23.99771085 24.09472137 -24.6875 19.09375 C-24.96520661 12.77592455 -24.12670698 8.86374709 -20.3125 3.8125 C-14.31326514 -1.74776646 -7.65327829 -2.74362807 0 0 Z " fill="#FFFFFF" transform="translate(333.3125,273.1875)"/>
<path d="M0 0 C1.29349365 0.00523682 2.5869873 0.01047363 3.91967773 0.01586914 C4.9496714 0.01799156 4.9496714 0.01799156 6.00047302 0.02015686 C8.20144949 0.0257706 10.40232557 0.03832532 12.60327148 0.05102539 C14.09220231 0.05603863 15.58113473 0.06060184 17.07006836 0.06469727 C20.72700223 0.07574446 24.38387707 0.09301826 28.04077148 0.11352539 C28.08318872 2.44647314 28.08170086 4.78055106 28.04077148 7.11352539 C27.71077148 7.44352539 27.38077148 7.77352539 27.04077148 8.11352539 C23.74077148 8.11352539 20.44077148 8.11352539 17.04077148 8.11352539 C17.04077148 19.33352539 17.04077148 30.55352539 17.04077148 42.11352539 C14.07077148 42.11352539 11.10077148 42.11352539 8.04077148 42.11352539 C8.04077148 30.89352539 8.04077148 19.67352539 8.04077148 8.11352539 C4.41077148 8.11352539 0.78077148 8.11352539 -2.95922852 8.11352539 C-3.95922852 7.11352539 -3.95922852 7.11352539 -4.08422852 4.11352539 C-3.91909616 0.15034896 -3.91909616 0.15034896 0 0 Z " fill="#FFFFFF" transform="translate(79.959228515625,263.886474609375)"/>
<path d="M0 0 C6.15234375 -0.09765625 6.15234375 -0.09765625 8 0 C9 1 9 1 9.0625 4.5625 C9.041875 5.696875 9.02125 6.83125 9 8 C9.969375 7.979375 10.93875 7.95875 11.9375 7.9375 C15 8 15 8 16 9 C16.04092937 11.33297433 16.04241723 13.66705225 16 16 C13.69 16 11.38 16 9 16 C9.33 21.61 9.66 27.22 10 33 C11.98 33.66 13.96 34.32 16 35 C16 37.31 16 39.62 16 42 C14.27305325 42.13609913 12.54295278 42.23249228 10.8125 42.3125 C9.84957031 42.37050781 8.88664062 42.42851562 7.89453125 42.48828125 C5 42 5 42 2.1875 40.125 C-0.9046215 35.70768357 -0.77894552 31.96301042 -0.8125 26.6875 C-0.85020508 25.29047852 -0.85020508 25.29047852 -0.88867188 23.86523438 C-0.94735998 21.57639814 -0.98377168 19.28946574 -1 17 C-1.99 16.67 -2.98 16.34 -4 16 C-4 13.69 -4 11.38 -4 9 C-2.68 8.67 -1.36 8.34 0 8 C0 5.36 0 2.72 0 0 Z " fill="#FFFFFF" transform="translate(249,264)"/>
<path d="M0 0 C0.94875 0.04125 1.8975 0.0825 2.875 0.125 C3.535 1.445 4.195 2.765 4.875 4.125 C5.24625 3.650625 5.6175 3.17625 6 2.6875 C8.52345338 0.58462219 10.64939209 0.40548764 13.875 0.125 C14.875 1.125 14.875 1.125 14.97265625 2.97265625 C14.94010417 5.0234375 14.90755208 7.07421875 14.875 9.125 C11.905 9.785 8.935 10.445 5.875 11.125 C4.72649303 15.86379768 4.54598443 20.58791362 4.3125 25.4375 C4.26931641 26.27345703 4.22613281 27.10941406 4.18164062 27.97070312 C4.07614693 30.02196935 3.97512685 32.0734648 3.875 34.125 C0.905 34.125 -2.065 34.125 -5.125 34.125 C-5.174377 29.60434572 -5.21070823 25.08384783 -5.23486328 20.56298828 C-5.24493118 19.02454902 -5.25858646 17.48612893 -5.27587891 15.94775391 C-5.30009317 13.73855867 -5.31147491 11.52961605 -5.3203125 9.3203125 C-5.33063507 8.63067413 -5.34095764 7.94103577 -5.35159302 7.23049927 C-5.35199478 5.52699094 -5.24691026 3.82414057 -5.125 2.125 C-3.125 0.125 -3.125 0.125 0 0 Z " fill="#FFFFFF" transform="translate(118.125,271.875)"/>
<path d="M0 0 C0.53625 0.268125 1.0725 0.53625 1.625 0.8125 C0.965 1.1425 0.305 1.4725 -0.375 1.8125 C-0.375 2.8025 -0.375 3.7925 -0.375 4.8125 C1.605 3.1625 3.585 1.5125 5.625 -0.1875 C6.615 0.8025 7.605 1.7925 8.625 2.8125 C8.026875 2.915625 7.42875 3.01875 6.8125 3.125 C4.57557626 3.63280432 4.57557626 3.63280432 3.27734375 5.23828125 C1.29641551 7.12554858 -0.43176783 7.76619766 -3 8.6875 C-6.56060123 10.03699901 -9.82573345 11.53622775 -13.125 13.4375 C-18.9009189 16.73078709 -23.61940141 18.33216143 -30.375 17.8125 C-31.035 17.1525 -31.695 16.4925 -32.375 15.8125 C-31.385 15.4825 -30.395 15.1525 -29.375 14.8125 C-29.045 14.1525 -28.715 13.4925 -28.375 12.8125 C-29.695 12.4825 -31.015 12.1525 -32.375 11.8125 C-32.375 10.4925 -32.375 9.1725 -32.375 7.8125 C-30.78171875 7.86470703 -30.78171875 7.86470703 -29.15625 7.91796875 C-16.19330545 8.31782749 -16.19330545 8.31782749 -5.125 2.0625 C-2.375 -0.1875 -2.375 -0.1875 0 0 Z " fill="#F4F2EE" transform="translate(358.375,204.1875)"/>
<path d="M0 0 C4.59225513 9.22551253 4.59225513 9.22551253 4 15 C3.01 15.495 3.01 15.495 2 16 C2 17.65 2 19.3 2 21 C2.99 21.33 3.98 21.66 5 22 C4.01 22 3.02 22 2 22 C2 22.66 2 23.32 2 24 C0.68 24.33 -0.64 24.66 -2 25 C-2.09087891 24.04287109 -2.09087891 24.04287109 -2.18359375 23.06640625 C-2.26738281 22.24011719 -2.35117187 21.41382813 -2.4375 20.5625 C-2.55931641 19.32693359 -2.55931641 19.32693359 -2.68359375 18.06640625 C-2.78930815 16.01337975 -2.78930815 16.01337975 -4 15 C-3.61577388 10.92720311 -3.12055529 7.53425882 -1 4 C-1.66 4 -2.32 4 -3 4 C-3 3.34 -3 2.68 -3 2 C-3.99 1.67 -4.98 1.34 -6 1 C-3 0 -3 0 0 0 Z " fill="#F8F6F2" transform="translate(401,270)"/>
<path d="M0 0 C0.33 0.66 0.66 1.32 1 2 C-0.70288198 3.13323463 -2.41258523 4.25622235 -4.125 5.375 C-5.07632812 6.00148437 -6.02765625 6.62796875 -7.0078125 7.2734375 C-11.98317099 10.14433626 -16.14489391 11.26475869 -21.875 11.125 C-22.84179688 11.10695312 -23.80859375 11.08890625 -24.8046875 11.0703125 C-25.89136719 11.03550781 -25.89136719 11.03550781 -27 11 C-27.66 9.68 -28.32 8.36 -29 7 C-28.67 6.67 -28.34 6.34 -28 6 C-26.20918304 6.00421865 -24.41805454 6.01522363 -22.62792969 6.06518555 C-13.9413232 6.30239226 -6.91953236 6.05459081 0 0 Z " fill="#3A4C1F" transform="translate(354,206)"/>
<path d="M0 0 C0.66 0 1.32 0 2 0 C1.67 0.7425 1.34 1.485 1 2.25 C-0.22782871 5.13883312 -0.22782871 5.13883312 0 9 C-1.375 10.75 -1.375 10.75 -3 12 C-3.66 12 -4.32 12 -5 12 C-5.33 11.34 -5.66 10.68 -6 10 C-6.33 10.99 -6.66 11.98 -7 13 C-4.69 13 -2.38 13 0 13 C-0.99 14.485 -0.99 14.485 -2 16 C-2.99 16 -3.98 16 -5 16 C-5.33 15.67 -5.66 15.34 -6 15 C-6.99 15.495 -6.99 15.495 -8 16 C-8.93065133 13.39417629 -9.14917407 12.35801776 -8.0625 9.75 C-7.711875 9.1725 -7.36125 8.595 -7 8 C-5.68 8 -4.36 8 -3 8 C-2.814375 6.8553125 -2.814375 6.8553125 -2.625 5.6875 C-2 3 -2 3 0 0 Z " fill="#F5F1EC" transform="translate(406,292)"/>
<path d="M0 0 C1.98 0 3.96 0 6 0 C6.33 1.65 6.66 3.3 7 5 C4.6875 5.625 4.6875 5.625 2 6 C1.01 5.34 0.02 4.68 -1 4 C-0.67 2.68 -0.34 1.36 0 0 Z " fill="#324515" transform="translate(315,211)"/>
<path d="M0 0 C0.66 0 1.32 0 2 0 C2 2.64 2 5.28 2 8 C-2.43076923 10.09230769 -2.43076923 10.09230769 -5.3125 9.625 C-5.869375 9.41875 -6.42625 9.2125 -7 9 C-6.67 7.68 -6.34 6.36 -6 5 C-5.67 5.99 -5.34 6.98 -5 8 C-4.34 8 -3.68 8 -3 8 C-1.58622659 5.36095629 -0.62759865 2.92879371 0 0 Z " fill="#FAF8F6" transform="translate(406,296)"/>
<path d="M0 0 C0.66 0.99 1.32 1.98 2 3 C0.68 4.32 -0.64 5.64 -2 7 C-2.66 6.67 -3.32 6.34 -4 6 C-3.67 4.35 -3.34 2.7 -3 1 C-2.01 0.67 -1.02 0.34 0 0 Z " fill="#F8F4F0" transform="translate(453,180)"/>
</svg>
