<?xml version="1.0" encoding="UTF-8"?>
<svg version="1.1" xmlns="http://www.w3.org/2000/svg" width="500" height="500">
<path d="M0 0 C0 0.66 0 1.32 0 2 C0.556875 2.185625 1.11375 2.37125 1.6875 2.5625 C8.12769555 6.5658648 10.31073289 13.57402066 12.2734375 20.53125 C14.8968832 33.05608753 12.38889903 45.03282111 6 56 C5.34 56.99 4.68 57.98 4 59 C3.34 59 2.68 59 2 59 C2 59.66 2 60.32 2 61 C-10.28395473 70.86042787 -23.7366225 71.85765097 -38.87109375 72.1015625 C-57.04829402 72.46548815 -81.31505721 72.99680273 -95 87 C-101.39852512 96.90540908 -101.4014693 109.60656714 -99 120.875 C-95.4985891 133.18747306 -88.77307266 143.96334024 -81 154 C-65.36321092 174.48100251 -54.65938615 196.91944734 -57.23046875 223.37109375 C-57.4455607 224.92037927 -57.71390546 226.46224187 -58 228 C-54.04 228.33 -50.08 228.66 -46 229 C-46 232.96 -46 236.92 -46 241 C-62.83 241 -79.66 241 -97 241 C-97 230 -97 230 -96 229 C-94.65732587 228.91368126 -93.31025678 228.89293527 -91.96484375 228.90234375 C-91.15595703 228.90556641 -90.34707031 228.90878906 -89.51367188 228.91210938 C-88.66353516 228.92048828 -87.81339844 228.92886719 -86.9375 228.9375 C-86.08349609 228.94201172 -85.22949219 228.94652344 -84.34960938 228.95117188 C-82.23304337 228.96299627 -80.11651315 228.98093231 -78 229 C-77.51930398 226.40219597 -77.04485574 223.80348198 -76.578125 221.203125 C-76.20362775 219.12820781 -75.81885496 217.05510831 -75.421875 214.984375 C-72.64150052 199.81147427 -73.42796241 186.32796784 -82.28125 173.2421875 C-83.90692301 171.01121323 -83.90692301 171.01121323 -85.71875 169.3203125 C-87 168 -87 168 -87 166 C-87.66 166 -88.32 166 -89 166 C-104.0954673 147.28628925 -107.49449724 121.86898437 -105.3515625 98.6640625 C-105.01027642 96.07787246 -104.54708123 93.54995487 -104 91 C-107.40431678 88.06524416 -109.99848685 87.8074407 -114.3125 88.125 C-123.54257116 89.31716631 -129.99933164 93.06811104 -137.82421875 98.0078125 C-150.65235113 106.05498041 -162.35295614 111.90935145 -177.8125 109.375 C-188.39502892 106.36045491 -200.08853204 100.25363619 -206 90.6875 C-209.34713775 83.79496199 -209.85511538 77.72082028 -207.4375 70.4375 C-201.71049473 56.53186048 -192.18261229 47.91448307 -179 41 C-164.83250098 35.22005901 -149.52316079 33.53394322 -134.921875 38.74609375 C-121.67512801 44.43086084 -111.28144113 54.29796363 -103 66 C-103 66.66 -103 67.32 -103 68 C-102.34 68 -101.68 68 -101 68 C-100.99742187 67.3915625 -100.99484375 66.783125 -100.9921875 66.15625 C-100.14037684 46.84854163 -88.93643288 27.89769254 -75 15 C-72.671875 13.671875 -72.671875 13.671875 -71 13 C-71 12.34 -71 11.68 -71 11 C-68.86191091 9.44448013 -66.73982279 8.02007181 -64.5 6.625 C-63.85289062 6.21870361 -63.20578125 5.81240723 -62.5390625 5.39379883 C-53.59876455 -0.16808081 -45.25144075 -3.31089054 -35 -6 C-34.33742188 -6.19722656 -33.67484375 -6.39445312 -32.9921875 -6.59765625 C-21.10975869 -8.99744089 -10.04407421 -6.33213374 0 0 Z " fill="#FBFBFA" transform="translate(322,124)"/>
<path d="M0 0 C10.0071322 -0.84806205 20.2199063 2.55363665 28 9 C28 9.66 28 10.32 28 11 C29.19625 10.938125 30.3925 10.87625 31.625 10.8125 C38.25656305 10.7806685 44.58434858 12.46681445 51 14 C48.59547907 11.58351628 46.19787689 9.18183282 43.6875 6.875 C42 5 42 5 42 2 C45.13084099 2.57764438 46.77743006 3.40030044 49.015625 5.65234375 C49.80839844 6.44608398 49.80839844 6.44608398 50.6171875 7.25585938 C51.15601563 7.81080078 51.69484375 8.36574219 52.25 8.9375 C52.80429688 9.48857422 53.35859375 10.03964844 53.9296875 10.60742188 C58 14.73287408 58 14.73287408 58 17 C58.92232422 17.29003906 58.92232422 17.29003906 59.86328125 17.5859375 C60.67152344 17.84632813 61.47976562 18.10671875 62.3125 18.375 C63.11300781 18.63023437 63.91351563 18.88546875 64.73828125 19.1484375 C67 20 67 20 70 22 C70 22.66 70 23.32 70 24 C68.35 24 66.7 24 65 24 C66.32 25.32 67.64 26.64 69 28 C69.99 27.505 69.99 27.505 71 27 C71.495 29.97 71.495 29.97 72 33 C71.03320312 33.08636719 70.06640625 33.17273438 69.0703125 33.26171875 C57.87766362 34.46963828 50.07765965 36.72532426 42 45 C36.45944662 49.01861125 31.87547656 52.13708594 25 53 C23.70149744 53.32821928 22.40785691 53.67764293 21.125 54.0625 C20.09375 54.371875 19.0625 54.68125 18 55 C17.67 53.35 17.34 51.7 17 50 C15.35 50 13.7 50 12 50 C12 50.99 12 51.98 12 53 C10.68 52.67 9.36 52.34 8 52 C7.67 52.99 7.34 53.98 7 55 C6.01 55.495 6.01 55.495 5 56 C4.67 55.01 4.34 54.02 4 53 C4.66 53 5.32 53 6 53 C6 52.34 6 51.68 6 51 C6.99 50.505 6.99 50.505 8 50 C8 49.34 8 48.68 8 48 C6.35 47.34 4.7 46.68 3 46 C3.33 44.35 3.66 42.7 4 41 C4.85207031 41.15855469 5.70414063 41.31710938 6.58203125 41.48046875 C16.46478667 42.98264757 26.01955466 42.77794568 35 38 C35.495 37.01 35.495 37.01 36 36 C35.01 35.505 35.01 35.505 34 35 C34.66 35 35.32 35 36 35 C36.33 33.68 36.66 32.36 37 31 C36.401875 31.66 35.80375 32.32 35.1875 33 C33 35 33 35 30 35 C30.88550385 29.87752834 34.17062784 27.26558314 38 24 C40.59197863 22.18987964 43.2674809 20.58604913 46 19 C46.99 18.34 47.98 17.68 49 17 C44.67439288 16.2714767 40.34405953 15.60898031 36 15 C35.2471875 14.8865625 34.494375 14.773125 33.71875 14.65625 C31.73656432 14.40659633 31.73656432 14.40659633 29 15 C26.95456777 17.69140528 26.95456777 17.69140528 25 21 C18.37837838 27 18.37837838 27 14 27 C14 26.01 14 25.02 14 24 C15.93359375 22.46484375 15.93359375 22.46484375 18.4375 20.9375 C21.81592357 19.02575478 21.81592357 19.02575478 24 16 C16.80040315 15.33027006 8.14334297 17.07738388 2.18359375 21.28125 C0.53905163 23.66936397 0.24868099 25.83554735 -0.1875 28.6875 C-0.42533203 30.17830078 -0.42533203 30.17830078 -0.66796875 31.69921875 C-0.83232422 32.83810547 -0.83232422 32.83810547 -1 34 C-2.485 34.495 -2.485 34.495 -4 35 C-4.07442057 31.13013042 -4.04702186 27.7264085 -3 24 C-3.74765625 24.48210937 -4.4953125 24.96421875 -5.265625 25.4609375 C-6.74289063 26.40839844 -6.74289063 26.40839844 -8.25 27.375 C-9.22453125 28.00148437 -10.1990625 28.62796875 -11.203125 29.2734375 C-13.43521615 30.65134852 -15.63087422 31.88312642 -18 33 C-17.64154938 30.1512609 -17.12645301 29.11952408 -15.00390625 27.11328125 C-14.19824219 26.51902344 -13.39257812 25.92476562 -12.5625 25.3125 C-11.75941406 24.71050781 -10.95632812 24.10851562 -10.12890625 23.48828125 C-8 22 -8 22 -6 21 C-8.81484045 18.18515955 -11.2166247 18.37242958 -15.125 17.875 C-16.40632813 17.70742187 -17.68765625 17.53984375 -19.0078125 17.3671875 C-19.99523437 17.24601562 -20.98265625 17.12484375 -22 17 C-22 16.01 -22 15.02 -22 14 C-16.01797645 13.59058394 -11.33097181 13.57348553 -5.875 16.25 C-2.48939043 17.80445857 -2.48939043 17.80445857 1.09765625 17.515625 C2.53604885 16.81659308 3.95379956 16.07397064 5.3515625 15.296875 C8.81467626 13.60107298 12.33567001 12.69533373 16.0625 11.75 C16.74272217 11.57533203 17.42294434 11.40066406 18.1237793 11.22070312 C19.74760548 10.80753902 21.37358525 10.40285372 23 10 C15.7502133 6.32602686 9.06920186 4.04571862 1 3 C0.67 2.01 0.34 1.02 0 0 Z " fill="#F6F4F2" transform="translate(144,176)"/>
<path d="M0 0 C0.99 0.495 0.99 0.495 2 1 C1.71459486 2.56365584 1.42136502 4.12588434 1.125 5.6875 C0.96257812 6.55761719 0.80015625 7.42773438 0.6328125 8.32421875 C-0.00580048 11.02452671 -0.90784485 13.45316762 -2 16 C-0.94941406 15.7834375 0.10117187 15.566875 1.18359375 15.34375 C8.54650184 13.86853877 15.45235268 12.59566175 23 13 C22.67 13.99 22.34 14.98 22 16 C20.81921875 16.20496094 19.6384375 16.40992188 18.421875 16.62109375 C16.86457003 16.89315305 15.3072791 17.16529268 13.75 17.4375 C12.97269531 17.57220703 12.19539063 17.70691406 11.39453125 17.84570312 C10.26337891 18.04389648 10.26337891 18.04389648 9.109375 18.24609375 C8.41811523 18.36654053 7.72685547 18.4869873 7.01464844 18.61108398 C4.98733883 19.00244416 2.99805485 19.48089751 1 20 C1.80824219 20.51949219 2.61648438 21.03898437 3.44921875 21.57421875 C4.51785156 22.27160156 5.58648437 22.96898437 6.6875 23.6875 C7.74324219 24.37199219 8.79898438 25.05648437 9.88671875 25.76171875 C12.95542101 27.96795011 15.51841838 30.15009458 18 33 C18 33.99 18 34.98 18 36 C14.53626888 34.43442598 11.70876475 32.35729374 8.6875 30.0625 C0.34096232 23.93011515 0.34096232 23.93011515 -9.80004883 23.48999023 C-13.66971513 24.38708633 -17.01803238 26.19577847 -20.5 28.0625 C-21.22703125 28.43955078 -21.9540625 28.81660156 -22.703125 29.20507812 C-24.47450493 30.12572954 -26.23810661 31.06132136 -28 32 C-27.12432373 32.029729 -27.12432373 32.029729 -26.23095703 32.06005859 C-23.52859732 32.15662861 -20.82687606 32.26575973 -18.125 32.375 C-17.2071875 32.4059375 -16.289375 32.436875 -15.34375 32.46875 C-5.64688213 32.87847681 2.47088607 34.26160337 11 39 C11 39.66 11 40.32 11 41 C7.26141448 40.49478574 3.82309566 39.63154657 0.23828125 38.50390625 C-6.30686195 36.71256399 -12.70311419 36.33815545 -19.47021484 36.27929688 C-21.50075113 36.24998916 -23.52234962 36.15659492 -25.55078125 36.0625 C-34.52676758 35.95679653 -39.26978551 37.59690849 -45.84570312 43.76464844 C-47.13001694 45.09728413 -48.40741785 46.43672334 -49.66992188 47.79003906 C-51 49 -51 49 -53 49 C-53 49.66 -53 50.32 -53 51 C-53.66 51 -54.32 51 -55 51 C-55 51.66 -55 52.32 -55 53 C-54.29617187 52.97905273 -53.59234375 52.95810547 -52.8671875 52.93652344 C-34.79328478 52.47051877 -19.01740104 52.60517824 -3 62 C-3 62.99 -3 63.98 -3 65 C-4.216875 64.5875 -5.43375 64.175 -6.6875 63.75 C-33.77110093 54.53434323 -33.77110093 54.53434323 -61.17041016 58.06933594 C-64.65283737 61.03179158 -66.33970839 64.83370575 -68 69 C-68.83397085 70.42864893 -69.68393121 71.84833598 -70.5625 73.25 C-71.036875 74.1575 -71.51125 75.065 -72 76 C-72.99 75.67 -73.98 75.34 -75 75 C-73.50270432 70.66998275 -71.20006552 67.14031816 -68.5625 63.4375 C-68.16740234 62.87353516 -67.77230469 62.30957031 -67.36523438 61.72851562 C-65.73668013 59.4116872 -64.13794877 57.15392502 -62.24609375 55.04296875 C-60.40756315 52.02870072 -60.5862297 49.37448863 -60.5 45.875 C-60.21923346 38.83957249 -59.17301874 32.34603748 -56 26 C-55.01 26 -54.02 26 -53 26 C-53.31049726 27.43793392 -53.6234776 28.8753318 -53.9375 30.3125 C-54.19853516 31.51326172 -54.19853516 31.51326172 -54.46484375 32.73828125 C-55 35 -55 35 -56 38 C-56.06802967 39.72795352 -56.08495645 41.45835365 -56.0625 43.1875 C-56.05347656 44.08855469 -56.04445312 44.98960937 -56.03515625 45.91796875 C-56.02355469 46.60503906 -56.01195312 47.29210937 -56 48 C-55.28714844 47.33613281 -54.57429688 46.67226562 -53.83984375 45.98828125 C-52.88207031 45.10527344 -51.92429688 44.22226563 -50.9375 43.3125 C-50.43742432 42.85061279 -49.93734863 42.38872559 -49.42211914 41.9128418 C-46.71896044 39.44913184 -44.0341582 37.25447209 -40.9375 35.3125 C-35.62985648 31.13414234 -35.48661102 23.58763231 -34.4375 17.1875 C-33.13114754 9.26229508 -33.13114754 9.26229508 -32 7 C-31.01 7 -30.02 7 -29 7 C-29.67454103 14.8246759 -31.26876958 22.34556614 -33 30 C-31.515 29.18595703 -31.515 29.18595703 -30 28.35546875 C-12.7960421 19 -12.7960421 19 -7 19 C-5.97844631 15.94450084 -4.9632846 12.88735993 -3.96484375 9.82421875 C-3.62582031 8.78910156 -3.28679687 7.75398437 -2.9375 6.6875 C-2.42509766 5.11548828 -2.42509766 5.11548828 -1.90234375 3.51171875 C-1 1 -1 1 0 0 Z " fill="#141414" transform="translate(299,123)"/>
<path d="M0 0 C10.0071322 -0.84806205 20.2199063 2.55363665 28 9 C28 9.66 28 10.32 28 11 C29.19625 10.938125 30.3925 10.87625 31.625 10.8125 C38.25656305 10.7806685 44.58434858 12.46681445 51 14 C48.59547907 11.58351628 46.19787689 9.18183282 43.6875 6.875 C42 5 42 5 42 2 C45.13084099 2.57764438 46.77743006 3.40030044 49.015625 5.65234375 C49.80839844 6.44608398 49.80839844 6.44608398 50.6171875 7.25585938 C51.15601563 7.81080078 51.69484375 8.36574219 52.25 8.9375 C52.80429688 9.48857422 53.35859375 10.03964844 53.9296875 10.60742188 C58 14.73287408 58 14.73287408 58 17 C58.92232422 17.29003906 58.92232422 17.29003906 59.86328125 17.5859375 C60.67152344 17.84632813 61.47976562 18.10671875 62.3125 18.375 C63.11300781 18.63023437 63.91351563 18.88546875 64.73828125 19.1484375 C67 20 67 20 70 22 C70 22.66 70 23.32 70 24 C66.53720448 23.58776244 64.09056334 23.04905514 61 21.375 C57.29222563 19.67560341 55.88007819 19.83597654 52 21 C45.36827778 23.52637037 36.23875375 28.5224925 33 35 C32.01 35 31.02 35 30 35 C30.88550385 29.87752834 34.17062784 27.26558314 38 24 C40.59197863 22.18987964 43.2674809 20.58604913 46 19 C46.99 18.34 47.98 17.68 49 17 C44.67439288 16.2714767 40.34405953 15.60898031 36 15 C35.2471875 14.8865625 34.494375 14.773125 33.71875 14.65625 C31.73656432 14.40659633 31.73656432 14.40659633 29 15 C26.95456777 17.69140528 26.95456777 17.69140528 25 21 C18.37837838 27 18.37837838 27 14 27 C14 26.01 14 25.02 14 24 C15.93359375 22.46484375 15.93359375 22.46484375 18.4375 20.9375 C21.81592357 19.02575478 21.81592357 19.02575478 24 16 C16.80040315 15.33027006 8.14334297 17.07738388 2.18359375 21.28125 C0.53905163 23.66936397 0.24868099 25.83554735 -0.1875 28.6875 C-0.42533203 30.17830078 -0.42533203 30.17830078 -0.66796875 31.69921875 C-0.83232422 32.83810547 -0.83232422 32.83810547 -1 34 C-2.485 34.495 -2.485 34.495 -4 35 C-4.07442057 31.13013042 -4.04702186 27.7264085 -3 24 C-3.74765625 24.48210937 -4.4953125 24.96421875 -5.265625 25.4609375 C-6.74289063 26.40839844 -6.74289063 26.40839844 -8.25 27.375 C-9.22453125 28.00148437 -10.1990625 28.62796875 -11.203125 29.2734375 C-13.43521615 30.65134852 -15.63087422 31.88312642 -18 33 C-17.64154938 30.1512609 -17.12645301 29.11952408 -15.00390625 27.11328125 C-14.19824219 26.51902344 -13.39257812 25.92476562 -12.5625 25.3125 C-11.75941406 24.71050781 -10.95632812 24.10851562 -10.12890625 23.48828125 C-8 22 -8 22 -6 21 C-8.81484045 18.18515955 -11.2166247 18.37242958 -15.125 17.875 C-16.40632813 17.70742187 -17.68765625 17.53984375 -19.0078125 17.3671875 C-19.99523437 17.24601562 -20.98265625 17.12484375 -22 17 C-22 16.01 -22 15.02 -22 14 C-16.01797645 13.59058394 -11.33097181 13.57348553 -5.875 16.25 C-2.48939043 17.80445857 -2.48939043 17.80445857 1.09765625 17.515625 C2.53604885 16.81659308 3.95379956 16.07397064 5.3515625 15.296875 C8.81467626 13.60107298 12.33567001 12.69533373 16.0625 11.75 C16.74272217 11.57533203 17.42294434 11.40066406 18.1237793 11.22070312 C19.74760548 10.80753902 21.37358525 10.40285372 23 10 C15.7502133 6.32602686 9.06920186 4.04571862 1 3 C0.67 2.01 0.34 1.02 0 0 Z " fill="#151515" transform="translate(144,176)"/>
<path d="M0 0 C0 0.99 0 1.98 0 3 C-8.62253852 10.63363571 -17.70256576 14.12687137 -29.125 14.1875 C-30.95417969 14.20876953 -30.95417969 14.20876953 -32.8203125 14.23046875 C-36 14 -36 14 -39 12 C-38.67 10.35 -38.34 8.7 -38 7 C-37.14792969 7.15855469 -36.29585937 7.31710938 -35.41796875 7.48046875 C-21.99073747 9.5214079 -11.40839963 7.09855977 0 0 Z " fill="#2B3F0D" transform="translate(186,210)"/>
<path d="M0 0 C6.41868512 -0.3633218 6.41868512 -0.3633218 9 1.25 C10 3 10 3 9.6875 5.1875 C9.3471875 6.0846875 9.3471875 6.0846875 9 7 C5.75 7.75 5.75 7.75 2 8 C-0.4375 6.0625 -0.4375 6.0625 -2 4 C-1.34 2.68 -0.68 1.36 0 0 Z " fill="#273B09" transform="translate(133,216)"/>
<path d="M0 0 C0 0.66 0 1.32 0 2 C-9.66073875 9.7547516 -19.76369223 12.71666011 -32 12 C-32 11.67 -32 11.34 -32 11 C-30.4221875 10.7834375 -30.4221875 10.7834375 -28.8125 10.5625 C-19.64018333 9.20920738 -7.60439057 0 0 0 Z " fill="#FEFEFE" transform="translate(324,183)"/>
<path d="M0 0 C3 1 3 1 4.375 3.3125 C5 6 5 6 3.625 8.3125 C3.08875 8.869375 2.5525 9.42625 2 10 C1.67 9.34 1.34 8.68 1 8 C0.34 8 -0.32 8 -1 8 C-1 7.01 -1 6.02 -1 5 C-1.33 5.99 -1.66 6.98 -2 8 C-2.66 8 -3.32 8 -4 8 C-4.33 8.99 -4.66 9.98 -5 11 C-4.979375 10.071875 -4.95875 9.14375 -4.9375 8.1875 C-4.84230396 4.97713989 -4.84230396 4.97713989 -6 2 C-3.03 2.495 -3.03 2.495 0 3 C0 2.01 0 1.02 0 0 Z " fill="#F6F2ED" transform="translate(255,309)"/>
<path d="M0 0 C-0.66 1.65 -1.32 3.3 -2 5 C-2.556875 4.67 -3.11375 4.34 -3.6875 4 C-6.30284522 2.8690399 -8.1806646 2.84337026 -11 3 C-11 3.99 -11 4.98 -11 6 C-12.32 5.67 -13.64 5.34 -15 5 C-15.33 5.99 -15.66 6.98 -16 8 C-16.99 8.495 -16.99 8.495 -18 9 C-18.33 8.01 -18.66 7.02 -19 6 C-18.34 6 -17.68 6 -17 6 C-17 5.34 -17 4.68 -17 4 C-16.34 3.67 -15.68 3.34 -15 3 C-15 2.34 -15 1.68 -15 1 C-13.06263299 0.83179449 -11.12510094 0.66548905 -9.1875 0.5 C-7.56908203 0.36078125 -7.56908203 0.36078125 -5.91796875 0.21875 C-3 0 -3 0 0 0 Z " fill="#F4F1EC" transform="translate(167,223)"/>
<path d="M0 0 C1.06775224 1.96466413 2.06553465 3.96855359 3 6 C1.60804085 8.7839183 -0.15575779 8.97898997 -3 10 C-2.34 8.35 -1.68 6.7 -1 5 C-2.32 5 -3.64 5 -5 5 C-5 4.34 -5 3.68 -5 3 C-5.99 3.33 -6.98 3.66 -8 4 C-7.67 3.01 -7.34 2.02 -7 1 C-4.53721199 -0.231394 -2.7204945 -0.07159196 0 0 Z " fill="#F6F3EF" transform="translate(253,299)"/>
<path d="M0 0 C0 0.99 0 1.98 0 3 C0.66 3.33 1.32 3.66 2 4 C1.34 4 0.68 4 0 4 C0 4.66 0 5.32 0 6 C-4.455 7.485 -4.455 7.485 -9 9 C-9.33 8.01 -9.66 7.02 -10 6 C-8 5 -6 4 -4 3 C-4 2.34 -4 1.68 -4 1 C-2 0 -2 0 0 0 Z " fill="#F6F4F0" transform="translate(171,222)"/>
<path d="M0 0 C0.33 0.99 0.66 1.98 1 3 C-0.10235936 3.96041171 -1.20696624 4.91824407 -2.3125 5.875 C-2.92738281 6.40867188 -3.54226562 6.94234375 -4.17578125 7.4921875 C-8.41968912 11 -8.41968912 11 -12 11 C-12 10.01 -12 9.02 -12 8 C-9.62890625 6.2109375 -9.62890625 6.2109375 -6.5625 4.375 C-3.09234338 2.43951068 -3.09234338 2.43951068 0 0 Z " fill="#0D0D0D" transform="translate(170,192)"/>
<path d="M0 0 C3.0625 1.1875 3.0625 1.1875 6.0625 3.1875 C6.0625 4.1775 6.0625 5.1675 6.0625 6.1875 C4.6035574 5.71019162 3.14536504 5.23058958 1.6875 4.75 C0.87539063 4.48316406 0.06328125 4.21632812 -0.7734375 3.94140625 C-2.9375 3.1875 -2.9375 3.1875 -4.9375 2.1875 C-4.9375 1.5275 -4.9375 0.8675 -4.9375 0.1875 C-2.9375 -0.8125 -2.9375 -0.8125 0 0 Z " fill="#323130" transform="translate(289.9375,181.8125)"/>
<path d="M0 0 C0.66 0.33 1.32 0.66 2 1 C1.34 2.32 0.68 3.64 0 5 C-0.66 5 -1.32 5 -2 5 C-2 5.99 -2 6.98 -2 8 C-2.66 8 -3.32 8 -4 8 C-4.33 8.66 -4.66 9.32 -5 10 C-5 9.34 -5 8.68 -5 8 C-6.65 8.33 -8.3 8.66 -10 9 C-10 8.34 -10 7.68 -10 7 C-8.06640625 5.52734375 -8.06640625 5.52734375 -5.5625 3.9375 C-2.6281857 2.16321108 -2.6281857 2.16321108 0 0 Z " fill="#EEECE6" transform="translate(184,213)"/>
<path d="M0 0 C0 0.99 0 1.98 0 3 C-1.62935241 4.37868281 -3.29749607 5.71274093 -5 7 C-5.33 7.66 -5.66 8.32 -6 9 C-6.99 9 -7.98 9 -9 9 C-8.44706396 4.02357564 -5.06735917 0 0 0 Z " fill="#0E0E0E" transform="translate(183,202)"/>
<path d="M0 0 C1.98 0 3.96 0 6 0 C6 0.66 6 1.32 6 2 C3.1875 4.6875 3.1875 4.6875 0 7 C-0.99 6.67 -1.98 6.34 -3 6 C-3 5.01 -3 4.02 -3 3 C-1.68 3.33 -0.36 3.66 1 4 C0.67 2.68 0.34 1.36 0 0 Z M-5 5 C-4.34 5.66 -3.68 6.32 -3 7 C-3.66 7 -4.32 7 -5 7 C-5 6.34 -5 5.68 -5 5 Z " fill="#F8F5F2" transform="translate(155,225)"/>
<path d="M0 0 C2.31 0.33 4.62 0.66 7 1 C6.67 2.65 6.34 4.3 6 6 C5.34 6 4.68 6 4 6 C3.67 5.34 3.34 4.68 3 4 C2.34 4.66 1.68 5.32 1 6 C0.34 5.67 -0.32 5.34 -1 5 C-0.67 3.35 -0.34 1.7 0 0 Z " fill="#F9F6F3" transform="translate(247,346)"/>
<path d="M0 0 C0.99 0.33 1.98 0.66 3 1 C3.33 1.99 3.66 2.98 4 4 C3.01 4 2.02 4 1 4 C1 4.66 1 5.32 1 6 C-0.8125 6.6875 -0.8125 6.6875 -3 7 C-4.75 5.5625 -4.75 5.5625 -6 4 C-4.68 4 -3.36 4 -2 4 C-1.67 3.01 -1.34 2.02 -1 1 C-0.67 0.67 -0.34 0.34 0 0 Z " fill="#F7F4F1" transform="translate(149,223)"/>
<path d="M0 0 C-0.66 1.65 -1.32 3.3 -2 5 C-2.53625 4.690625 -3.0725 4.38125 -3.625 4.0625 C-6.3984957 2.82172561 -9.00042837 2.4090325 -12 2 C-12 1.67 -12 1.34 -12 1 C-10.56274129 0.83126522 -9.12518162 0.66509263 -7.6875 0.5 C-6.88699219 0.4071875 -6.08648437 0.314375 -5.26171875 0.21875 C-3 0 -3 0 0 0 Z " fill="#E1E0D7" transform="translate(167,223)"/>
<path d="M0 0 C2.9375 0.8125 2.9375 0.8125 6 2 C6.33 2.99 6.66 3.98 7 5 C1.25 4.125 1.25 4.125 -1 3 C-0.67 2.01 -0.34 1.02 0 0 Z " fill="#282828" transform="translate(207,195)"/>
<path d="M0 0 C0 0.99 0 1.98 0 3 C-1.53125 4.38671875 -1.53125 4.38671875 -3.5 5.6875 C-4.47453125 6.34298828 -4.47453125 6.34298828 -5.46875 7.01171875 C-5.9740625 7.33785156 -6.479375 7.66398438 -7 8 C-7.66 7.01 -8.32 6.02 -9 5 C-6.03 3.35 -3.06 1.7 0 0 Z " fill="#44552A" transform="translate(186,210)"/>
<path d="M0 0 C0.99 0 1.98 0 3 0 C2.34 2.97 1.68 5.94 1 9 C0.01 8.34 -0.98 7.68 -2 7 C-1.125 2.25 -1.125 2.25 0 0 Z " fill="#1F1F1F" transform="translate(243,149)"/>
<path d="M0 0 C0.66 0.33 1.32 0.66 2 1 C1 4 1 4 -2 6 C-2.99 6 -3.98 6 -5 6 C-5 5.01 -5 4.02 -5 3 C-2.625 1.25 -2.625 1.25 0 0 Z " fill="#141414" transform="translate(163,197)"/>
<path d="M0 0 C0.99 0.99 1.98 1.98 3 3 C1.68 3.99 0.36 4.98 -1 6 C-1.66 5.67 -2.32 5.34 -3 5 C-3 3 -3 3 -1.5 1.375 C-1.005 0.92125 -0.51 0.4675 0 0 Z " fill="#EDECE7" transform="translate(143,220)"/>
<path d="M0 0 C2.86724686 0.57344937 3.8614515 0.8614515 6 3 C3.69 3.33 1.38 3.66 -1 4 C-0.67 2.68 -0.34 1.36 0 0 Z " fill="#2C2C2C" transform="translate(302,138)"/>
</svg>
